<mxfile host="app.diagrams.net" modified="2023-06-16T15:41:03.740Z" agent="Mozilla/5.0 (X11; Linux x86_64; rv:109.0) Gecko/20100101 Firefox/114.0" etag="rm0-FUX62a2p8UpRcWjj" version="21.3.8" type="device">
  <diagram name="Page-1" id="8FRpXJnR-P_6Mu9A4L2G">
    <mxGraphModel dx="1111" dy="1720" grid="1" gridSize="10" guides="1" tooltips="1" connect="1" arrows="1" fold="1" page="1" pageScale="1" pageWidth="850" pageHeight="1100" math="0" shadow="0">
      <root>
        <mxCell id="0" />
        <mxCell id="1" parent="0" />
        <mxCell id="ZVM27dHLaGGcp62J2ybX-13" value="" style="endArrow=none;html=1;rounded=0;strokeWidth=4;strokeColor=#FF0000;" edge="1" parent="1" source="ZVM27dHLaGGcp62J2ybX-9">
          <mxGeometry width="50" height="50" relative="1" as="geometry">
            <mxPoint x="490" y="395" as="sourcePoint" />
            <mxPoint x="490" y="415.71067811865476" as="targetPoint" />
          </mxGeometry>
        </mxCell>
        <mxCell id="ZVM27dHLaGGcp62J2ybX-11" value="" style="rounded=0;whiteSpace=wrap;html=1;rotation=15;fillColor=#000000;" vertex="1" parent="1">
          <mxGeometry x="200" y="380" width="350" height="10" as="geometry" />
        </mxCell>
        <mxCell id="ZVM27dHLaGGcp62J2ybX-9" value="" style="rounded=0;whiteSpace=wrap;html=1;fillColor=#0050ef;fontColor=#ffffff;strokeColor=#001DBC;" vertex="1" parent="1">
          <mxGeometry x="445" y="195" width="90" height="150" as="geometry" />
        </mxCell>
        <mxCell id="ZVM27dHLaGGcp62J2ybX-2" value="" style="rounded=0;whiteSpace=wrap;html=1;fillColor=#dae8fc;strokeColor=#6c8ebf;" vertex="1" parent="1">
          <mxGeometry x="200" y="195" width="90" height="150" as="geometry" />
        </mxCell>
        <mxCell id="ZVM27dHLaGGcp62J2ybX-1" value="" style="rounded=0;whiteSpace=wrap;html=1;fillColor=#9a9996;" vertex="1" parent="1">
          <mxGeometry x="60" y="240" width="250" height="60" as="geometry" />
        </mxCell>
        <mxCell id="ZVM27dHLaGGcp62J2ybX-4" value="" style="rounded=0;whiteSpace=wrap;html=1;fillColor=#999999;" vertex="1" parent="1">
          <mxGeometry x="425" y="240" width="250" height="60" as="geometry" />
        </mxCell>
        <mxCell id="ZVM27dHLaGGcp62J2ybX-7" value="" style="rounded=0;whiteSpace=wrap;html=1;fillColor=#000000;" vertex="1" parent="1">
          <mxGeometry x="10" y="172.5" width="120" height="195" as="geometry" />
        </mxCell>
        <mxCell id="ZVM27dHLaGGcp62J2ybX-10" value="" style="rounded=0;whiteSpace=wrap;html=1;fillColor=#000000;" vertex="1" parent="1">
          <mxGeometry x="585" y="172.5" width="120" height="195" as="geometry" />
        </mxCell>
        <mxCell id="ZVM27dHLaGGcp62J2ybX-14" value="" style="endArrow=classic;startArrow=classic;html=1;rounded=0;strokeWidth=8;" edge="1" parent="1">
          <mxGeometry width="50" height="50" relative="1" as="geometry">
            <mxPoint x="50" y="30" as="sourcePoint" />
            <mxPoint x="230" y="30" as="targetPoint" />
            <Array as="points">
              <mxPoint x="150" y="30" />
              <mxPoint x="160" y="30" />
            </Array>
          </mxGeometry>
        </mxCell>
        <mxCell id="ZVM27dHLaGGcp62J2ybX-16" value="&lt;font style=&quot;font-size: 45px;&quot;&gt;1A&lt;/font&gt;" style="ellipse;whiteSpace=wrap;html=1;aspect=fixed;strokeWidth=4;" vertex="1" parent="1">
          <mxGeometry x="35" y="220" width="70" height="70" as="geometry" />
        </mxCell>
        <mxCell id="ZVM27dHLaGGcp62J2ybX-17" value="" style="endArrow=classic;startArrow=classic;html=1;rounded=0;strokeWidth=8;" edge="1" parent="1">
          <mxGeometry width="50" height="50" relative="1" as="geometry">
            <mxPoint x="510" y="30" as="sourcePoint" />
            <mxPoint x="690" y="30" as="targetPoint" />
            <Array as="points">
              <mxPoint x="610" y="30" />
              <mxPoint x="620" y="30" />
            </Array>
          </mxGeometry>
        </mxCell>
        <mxCell id="ZVM27dHLaGGcp62J2ybX-18" value="&lt;font style=&quot;font-size: 45px;&quot;&gt;1B&lt;/font&gt;" style="ellipse;whiteSpace=wrap;html=1;aspect=fixed;strokeWidth=4;" vertex="1" parent="1">
          <mxGeometry x="610" y="220" width="70" height="70" as="geometry" />
        </mxCell>
        <mxCell id="ZVM27dHLaGGcp62J2ybX-19" value="&lt;font style=&quot;font-size: 45px;&quot;&gt;4A&lt;/font&gt;" style="ellipse;whiteSpace=wrap;html=1;aspect=fixed;strokeWidth=4;" vertex="1" parent="1">
          <mxGeometry x="105" y="-60" width="70" height="70" as="geometry" />
        </mxCell>
        <mxCell id="ZVM27dHLaGGcp62J2ybX-20" value="&lt;font style=&quot;font-size: 45px;&quot;&gt;2&lt;/font&gt;" style="ellipse;whiteSpace=wrap;html=1;aspect=fixed;strokeWidth=4;" vertex="1" parent="1">
          <mxGeometry x="270" y="430" width="70" height="70" as="geometry" />
        </mxCell>
        <mxCell id="ZVM27dHLaGGcp62J2ybX-21" value="" style="endArrow=none;dashed=1;html=1;dashPattern=1 3;strokeWidth=3;rounded=0;" edge="1" parent="1">
          <mxGeometry width="50" height="50" relative="1" as="geometry">
            <mxPoint x="320" y="430" as="sourcePoint" />
            <mxPoint x="370" y="380" as="targetPoint" />
          </mxGeometry>
        </mxCell>
        <mxCell id="ZVM27dHLaGGcp62J2ybX-22" value="&lt;font style=&quot;font-size: 45px;&quot;&gt;3&lt;/font&gt;" style="ellipse;whiteSpace=wrap;html=1;aspect=fixed;strokeWidth=4;" vertex="1" parent="1">
          <mxGeometry x="630" y="420" width="70" height="70" as="geometry" />
        </mxCell>
        <mxCell id="ZVM27dHLaGGcp62J2ybX-23" value="" style="endArrow=none;dashed=1;html=1;dashPattern=1 3;strokeWidth=3;rounded=0;" edge="1" parent="1">
          <mxGeometry width="50" height="50" relative="1" as="geometry">
            <mxPoint x="500" y="380" as="sourcePoint" />
            <mxPoint x="635" y="440" as="targetPoint" />
          </mxGeometry>
        </mxCell>
        <mxCell id="ZVM27dHLaGGcp62J2ybX-25" value="&lt;font style=&quot;font-size: 45px;&quot;&gt;4B&lt;/font&gt;" style="ellipse;whiteSpace=wrap;html=1;aspect=fixed;strokeWidth=4;" vertex="1" parent="1">
          <mxGeometry x="570" y="-60" width="70" height="70" as="geometry" />
        </mxCell>
      </root>
    </mxGraphModel>
  </diagram>
</mxfile>
